<svg width="64" height="102" viewBox="0 0 64 102" fill="none" xmlns="http://www.w3.org/2000/svg">
<path d="M41.8324 67.0054C41.4437 67.0054 41.1329 66.8884 40.921 66.7729C40.2041 66.3822 39.7133 65.5389 39.7276 64.7227C39.7374 64.1607 39.9989 63.7127 40.4449 63.4925C40.756 63.3394 41.0479 63.3356 41.3112 63.4793C41.8796 63.7917 42.0795 64.7014 42.0879 64.7401C42.1127 64.8568 42.0477 64.9734 41.9428 65.0013C41.8397 65.0277 41.732 64.9571 41.7069 64.8405C41.6618 64.632 41.4713 64.0514 41.1367 63.8681C40.9808 63.7824 40.806 63.7898 40.6043 63.8894C40.2125 64.0824 40.1244 64.4537 40.1195 64.7316C40.11 65.2835 40.4418 66.028 41.0941 66.3838C41.7813 66.7586 42.6049 66.5679 43.4145 65.8474C45.8374 63.691 45.6693 58.0909 45.6675 58.0347L45.6595 57.8092H55.5657L51.0262 52.234C47.6688 55.1043 44.1679 53.9467 42.7888 53.2967C43.6414 54.983 43.906 56.6232 43.575 58.1816C42.9839 60.966 40.72 62.4635 40.6239 62.5259C40.5313 62.5848 40.4114 62.5519 40.3561 62.4484C40.3019 62.3445 40.3331 62.2124 40.426 62.1511C40.4481 62.1364 42.6437 60.6803 43.195 58.0778C43.54 56.4473 43.1765 54.7063 42.1152 52.9022L41.6565 52.1235L42.3784 52.5967C42.4221 52.6258 46.8148 55.4311 50.9265 51.7689L51.0702 51.6406L56.4463 58.2429H46.0629C46.073 59.3521 45.9762 64.1235 43.6596 66.1854C42.9524 66.8148 42.3288 67.0054 41.8324 67.0054Z" fill="white"/>
<path d="M33.9222 64.2502V47.894L34.2963 48.8048C34.3075 48.8327 35.4502 51.6054 36.1955 52.5266C37.7316 54.4242 38.5125 56.2651 38.2846 57.4526C38.1731 58.0328 37.8413 58.4626 37.2991 58.7316C36.4696 59.1424 36.0749 58.7231 35.9141 58.4367C35.5282 57.7491 35.6701 56.3938 35.9756 56.1116C36.0585 56.0353 36.1822 56.0477 36.2508 56.1399C36.3203 56.2318 36.3091 56.369 36.2256 56.4457C36.0956 56.6035 35.9393 57.7363 36.2714 58.2475C36.3347 58.3448 36.5248 58.6398 37.1397 58.3348C37.5676 58.1231 37.8172 57.8049 37.9018 57.3619C38.1004 56.3256 37.3351 54.5838 35.9047 52.8161C35.3884 52.1786 34.7231 50.7752 34.3141 49.8539V63.6351C42.0372 60.4137 39.5332 50.5616 39.4214 50.1396L39.2976 49.6702L39.6947 49.883C46.4247 53.4913 51.0859 47.8769 51.1321 47.82L51.2719 47.6467L58.9083 56.3969H43.4757C43.3674 56.3969 43.28 56.2996 43.28 56.1795C43.28 56.0597 43.3674 55.9624 43.4757 55.9624H57.9848L51.2772 48.2757C50.4326 49.1931 46.0192 53.4835 39.8975 50.4655C40.3177 52.5483 41.5915 61.2861 34.183 64.1495L33.9222 64.2502Z" fill="white"/>
<path d="M33.9222 79.5604V68.0031C33.9222 67.8829 34.01 67.786 34.1183 67.786C34.2267 67.786 34.3141 67.8829 34.3141 68.0031V78.5357C35.9679 76.7234 39.3126 72.7535 39.3126 71.2722C39.3126 70.3145 38.5974 69.6971 37.892 69.582C37.2753 69.484 36.5167 69.7409 36.2381 70.7711C36.2074 70.8854 36.0983 70.9513 35.9948 70.9164C35.891 70.8819 35.8323 70.7614 35.8637 70.6467C36.2147 69.3506 37.2072 69.034 37.9493 69.153C38.8211 69.2948 39.7045 70.0684 39.7045 71.2726C39.7045 73.3701 34.4774 78.9701 34.2547 79.2077L33.9222 79.5604Z" fill="white"/>
<path d="M51.0695 44.2884L50.9259 44.1598C46.8086 40.4914 42.4218 43.3032 42.3777 43.3315L41.6541 43.8078L42.1142 43.0265C43.1769 41.2216 43.5394 39.4791 43.1933 37.8474C42.6396 35.2422 40.4474 33.7926 40.425 33.7783C40.3313 33.7178 40.3009 33.5845 40.3551 33.481C40.4096 33.3772 40.5302 33.3434 40.6229 33.4035C40.719 33.4655 42.9829 34.9631 43.574 37.7478C43.905 39.3058 43.6404 40.946 42.7878 42.6323C44.1665 41.9836 47.6678 40.8243 51.0251 43.6951L55.5647 38.1199H45.6588L45.6665 37.8943C45.6683 37.8377 45.834 32.2366 43.4135 30.0817C42.6042 29.3616 41.7803 29.1716 41.093 29.5453C40.4407 29.901 40.109 30.646 40.1184 31.1979C40.1233 31.4754 40.2114 31.8467 40.6033 32.0397C40.8053 32.1397 40.9801 32.1462 41.1364 32.0606C41.4727 31.8757 41.6611 31.2967 41.7059 31.089C41.7307 30.9723 41.8355 30.8979 41.9415 30.9277C42.0467 30.9552 42.1117 31.0723 42.0869 31.1889C42.0788 31.2277 41.8785 32.1377 41.3101 32.4497C41.0469 32.5943 40.755 32.59 40.4439 32.4365C39.9982 32.2168 39.7367 31.7684 39.7266 31.2064C39.7122 30.3902 40.203 29.5472 40.92 29.1561C41.4017 28.8938 42.3973 28.6217 43.6582 29.7437C45.9748 31.806 46.0717 36.5769 46.0615 37.6862H56.4449L51.0695 44.2884Z" fill="white"/>
<path d="M51.2719 48.2827L51.1318 48.1099C51.0856 48.0529 46.4157 42.4432 39.6944 46.0464L39.2973 46.2592L39.421 45.7899C39.5326 45.3678 42.0366 35.5154 34.3138 32.2943V46.0755C34.7228 45.1546 35.388 43.7513 35.9043 43.1133C37.3348 41.3456 38.1 39.6043 37.9015 38.5679C37.8169 38.1245 37.5672 37.8063 37.1394 37.5947C36.5248 37.2901 36.334 37.5846 36.271 37.6819C35.939 38.1935 36.0952 39.326 36.2294 39.488C36.3123 39.5647 36.3221 39.6996 36.2525 39.7918C36.1833 39.8833 36.0585 39.8945 35.9753 39.8178C35.6698 39.5357 35.5278 38.1803 35.9138 37.4932C36.0746 37.2071 36.4693 36.7882 37.2988 37.1978C37.8413 37.4664 38.1727 37.897 38.2842 38.4768C38.5122 39.6643 37.7312 41.5057 36.1952 43.4028C35.4499 44.3241 34.3075 47.0964 34.296 47.1247L33.9219 48.0359V31.6788L34.182 31.7796C41.5902 34.643 40.3166 43.3807 39.8965 45.4635C46.0178 42.4463 50.4319 46.7363 51.2761 47.6537L57.9837 39.9666H43.4747C43.3663 39.9666 43.2789 39.8698 43.2789 39.7496C43.2789 39.6295 43.3663 39.5326 43.4747 39.5326H58.9073L51.2719 48.2827Z" fill="white"/>
<path d="M34.118 28.1434C34.0097 28.1434 33.9219 28.0461 33.9219 27.9259V16.3686L34.2533 16.722C34.476 16.9592 39.7032 22.5596 39.7032 24.6576C39.7032 25.861 38.8201 26.6349 37.948 26.7768C37.2058 26.8962 36.213 26.5791 35.8624 25.2831C35.8309 25.168 35.8897 25.0475 35.9935 25.013C36.097 24.9773 36.206 25.0436 36.2368 25.1587C36.5157 26.1881 37.2743 26.4474 37.8906 26.3474C38.5964 26.2323 39.3113 25.6149 39.3113 24.6576C39.3113 23.1763 35.9669 19.2064 34.3127 17.3937V27.9263C34.3138 28.0461 34.2264 28.1434 34.118 28.1434Z" fill="white"/>
<path d="M15.5648 44.2884L10.1887 37.6858H20.5717C20.5619 36.5766 20.6588 31.8056 22.9754 29.7433C24.2363 28.6217 25.2319 28.8937 25.7133 29.1557C26.4306 29.5468 26.9214 30.3898 26.9067 31.206C26.8973 31.768 26.6361 32.216 26.1897 32.4362C25.8786 32.5896 25.5874 32.5939 25.3238 32.4493C24.7551 32.137 24.5555 31.2273 24.5467 31.1885C24.5219 31.0719 24.5869 30.9553 24.6921 30.9273C24.7967 30.9018 24.9026 30.9715 24.9278 31.0882C24.9729 31.2967 25.163 31.8773 25.4979 32.0606C25.6549 32.1462 25.8286 32.1393 26.0303 32.0393C26.4222 31.8463 26.5103 31.475 26.5152 31.1975C26.5246 30.6456 26.1929 29.9007 25.5402 29.5449C24.854 29.1713 24.0301 29.3608 23.2201 30.0813C20.7976 32.2377 20.9653 37.8377 20.9671 37.8939L20.9751 38.1195H11.0689L15.6082 43.6947C18.9655 40.8243 22.4668 41.982 23.8458 42.6319C22.9932 40.9456 22.7286 39.3054 23.0593 37.7474C23.6508 34.9627 25.9146 33.4652 26.0104 33.4031C26.1041 33.3435 26.2236 33.3768 26.2782 33.4806C26.3331 33.5841 26.3019 33.7163 26.2086 33.7779C26.1866 33.7923 23.9906 35.2487 23.4396 37.8509C23.0946 39.4814 23.4578 41.2227 24.5198 43.0265L24.9781 43.8051L24.2562 43.3319C24.2118 43.3025 19.8191 40.4972 15.7085 44.1598L15.5648 44.2884Z" fill="white"/>
<path d="M15.3628 48.2831L7.72702 39.533H23.1593C23.2677 39.533 23.3551 39.6298 23.3551 39.75C23.3551 39.8701 23.2677 39.967 23.1593 39.967H8.6506L15.3582 47.6541C16.2031 46.7367 20.6162 42.4471 26.7379 45.4639C26.318 43.3811 25.0442 34.6434 32.452 31.78L32.7124 31.6792V48.0359L32.3384 47.1247C32.3272 47.0968 31.1844 44.3241 30.4395 43.4028C28.9031 41.5057 28.1222 39.6644 28.3505 38.4768C28.4613 37.897 28.7934 37.4668 29.3355 37.1978C30.1654 36.7878 30.5597 37.2068 30.7205 37.4932C31.1065 38.1803 30.9646 39.5361 30.6594 39.8178C30.5762 39.8942 30.4521 39.8814 30.3832 39.7895C30.3147 39.6977 30.3256 39.5605 30.4084 39.4841C30.5391 39.326 30.6954 38.1935 30.3633 37.6819C30.3007 37.5846 30.1099 37.2901 29.495 37.5947C29.0674 37.8063 28.8182 38.1245 28.7329 38.5679C28.5336 39.6043 29.2988 41.3456 30.7303 43.1133C31.246 43.7513 31.9112 45.1547 32.3206 46.0755V32.2943C24.5974 35.5158 27.1014 45.3678 27.2133 45.7899L27.337 46.2592L26.9403 46.0465C20.211 42.4393 15.5487 48.0533 15.5029 48.1099L15.3628 48.2831Z" fill="white"/>
<path d="M32.5163 28.1434C32.4079 28.1434 32.3205 28.0461 32.3205 27.926V17.3934C30.6663 19.206 27.3223 23.1759 27.3223 24.6572C27.3223 25.6149 28.0372 26.2319 28.743 26.347C29.3593 26.4482 30.1179 26.1877 30.3961 25.1583C30.4276 25.0432 30.5359 24.9769 30.6401 25.0126C30.7436 25.0471 30.8023 25.1676 30.7715 25.2827C30.4206 26.5784 29.4306 26.8954 28.6857 26.7764C27.8138 26.6346 26.9308 25.861 26.9308 24.6572C26.9308 22.5593 32.1576 16.9593 32.3803 16.7217L32.7117 16.3682V27.9256C32.7124 28.0461 32.6246 28.1434 32.5163 28.1434Z" fill="white"/>
<path d="M24.8019 67.0055C24.3055 67.0055 23.6826 66.8148 22.9754 66.1858C20.6588 64.1239 20.5619 59.3525 20.5717 58.2433H10.1887L15.5648 51.641L15.7088 51.7693C19.8254 55.4381 24.2129 52.6262 24.2566 52.5975L24.9802 52.1212L24.5205 52.9026C23.4575 54.7075 23.0942 56.45 23.4414 58.0817C23.9947 60.6869 26.1869 62.1364 26.2093 62.1512C26.303 62.2116 26.3338 62.3445 26.2792 62.4484C26.2247 62.5511 26.1041 62.5852 26.0111 62.5259C25.9153 62.4635 23.6515 60.966 23.06 58.1817C22.7293 56.6232 22.9939 54.983 23.8465 53.2967C22.4675 53.9459 18.9665 55.1047 15.6088 52.234L11.0696 57.8092H20.9758L20.9678 58.0348C20.966 58.0913 20.8004 63.6929 23.2208 65.8474C24.0301 66.5675 24.8547 66.7586 25.5409 66.3838C26.1936 66.028 26.5253 65.2835 26.5159 64.7316C26.511 64.4537 26.4229 64.0824 26.031 63.8894C25.8293 63.7898 25.6556 63.7828 25.4986 63.8681C25.1637 64.0514 24.9736 64.632 24.9285 64.8405C24.9033 64.9572 24.7967 65.0277 24.6929 65.0013C24.5876 64.9734 24.5226 64.8568 24.5474 64.7401C24.5558 64.7014 24.7558 63.7921 25.3245 63.4794C25.5881 63.3356 25.8793 63.3398 26.1904 63.4925C26.6365 63.7123 26.8976 64.1607 26.9074 64.7227C26.9221 65.5389 26.4313 66.3823 25.714 66.7729C25.5018 66.8884 25.191 67.0055 24.8019 67.0055Z" fill="white"/>
<path d="M32.7124 64.2502L32.452 64.1495C25.0445 61.2861 26.318 52.5483 26.7379 50.4655C20.6175 53.4839 16.2027 49.1927 15.3582 48.2757L8.65057 55.9624H23.1593C23.2676 55.9624 23.355 56.0597 23.355 56.1795C23.355 56.2996 23.2676 56.3969 23.1593 56.3969H7.72699L15.3627 47.6471L15.5029 47.82C15.5494 47.8769 20.2193 53.487 26.9406 49.883L27.3374 49.6702L27.2136 50.1396C27.1021 50.5616 24.5981 60.4141 32.3209 63.6352V49.8539C31.9115 50.7752 31.2463 52.1786 30.7307 52.8161C29.2992 54.5838 28.5339 56.3256 28.7332 57.362C28.8185 57.8049 29.0678 58.1231 29.4953 58.3348C30.1102 58.6398 30.3014 58.3448 30.3636 58.2475C30.6957 57.7363 30.5394 56.6035 30.4056 56.4415C30.3224 56.3651 30.3126 56.2302 30.3821 56.138C30.4514 56.0469 30.5765 56.0349 30.6597 56.1116C30.9649 56.3938 31.1068 57.7491 30.7209 58.4367C30.5601 58.7227 30.1657 59.1417 29.3359 58.7316C28.7933 58.463 28.4616 58.0328 28.3508 57.4526C28.1225 56.2655 28.9034 54.4242 30.4398 52.5266C31.1848 51.6054 32.3272 48.8331 32.3387 48.8048L32.7127 47.894V64.2502H32.7124Z" fill="white"/>
<path d="M32.7124 79.5604L32.381 79.207C32.1583 78.9698 26.9315 73.3694 26.9315 71.2718C26.9315 70.068 27.8142 69.2941 28.6864 69.1522C29.4303 69.0325 30.4217 69.3503 30.7723 70.6459C30.803 70.7606 30.7443 70.8812 30.6408 70.9157C30.5367 70.9506 30.4283 70.8847 30.3968 70.7703C30.1186 69.7402 29.3586 69.4797 28.7437 69.5813C28.0376 69.6964 27.323 70.3142 27.323 71.2715C27.323 72.7527 30.6667 76.7226 32.3212 78.5349V68.0023C32.3212 67.8822 32.4086 67.7853 32.517 67.7853C32.6254 67.7853 32.7131 67.8822 32.7131 68.0023V79.5604H32.7124Z" fill="white"/>
<path d="M61.1281 42.8645H60.737V3.14747H55.7087L59.232 7.21656H58.7727C58.7619 7.2185 58.2739 7.28052 56.7385 8.58276C56.0443 9.17109 55.8115 10.0617 55.565 11.0054C55.2487 12.2151 54.89 13.5867 53.4955 14.5792C52.8331 15.0505 51.8249 14.9881 51.044 14.4265C50.2525 13.8576 49.8771 12.9487 50.0155 11.9314C50.2193 10.4288 51.1314 9.91755 51.9211 9.916C52.7069 9.92685 53.3592 10.4574 53.4372 11.15C53.5703 12.3294 52.889 12.8499 52.5098 12.9604L52.4105 12.5406L52.4604 12.7507L52.4094 12.5414C52.4409 12.5317 53.1722 12.293 53.0491 11.2043C52.9964 10.7334 52.4989 10.3582 51.9165 10.3505C51.2943 10.3505 50.5696 10.7694 50.4032 11.9961C50.2893 12.8371 50.6 13.5902 51.2579 14.0626C51.9137 14.5339 52.7475 14.5967 53.2848 14.2141C54.5558 13.3099 54.8778 12.0767 55.1896 10.8849C55.4542 9.87104 55.7048 8.91335 56.5012 8.23781C57.487 7.40221 58.0767 7.04526 58.4102 6.89333L54.7904 2.71378H61.1292V42.8645H61.1281Z" fill="white"/>
<path d="M49.2328 11.2395C49.223 11.1732 49.0025 9.60314 50.0711 8.77452C50.5881 8.37416 51.2908 8.2513 51.9997 8.43927C52.4311 8.55399 52.7985 8.76831 53.0404 9.03844C53.3728 8.37725 54.2506 6.87775 55.4877 6.58746L49.5932 0.434779H41.5695V0.000701904H49.7481L56.4358 6.98085L55.9317 6.97271C54.3527 6.95914 53.2599 9.50741 53.2491 9.53376L53.083 9.92405L52.8991 9.54424C52.7583 9.25163 52.3688 8.9842 51.9088 8.86211C51.318 8.7067 50.7143 8.8059 50.2955 9.13108C49.4272 9.8039 49.6174 11.1554 49.6191 11.1689L49.2328 11.2395Z" fill="white"/>
<path d="M63.8128 47.9645H63.4213V1.41114H50.606V0.977058H63.8128V47.9645Z" fill="white"/>
<path d="M50.0218 7.66108C49.9341 7.66108 49.8411 7.65643 49.7429 7.64596C49.0486 7.57116 48.5631 7.26381 48.3009 6.73206C47.657 5.42672 48.6477 3.24935 48.6903 3.15711L49.0448 3.34122C48.9651 3.5478 48.9717 4.23844 49.2367 4.52021C49.2884 4.57563 49.4464 4.74306 49.8568 4.52524C50.2725 4.30511 50.457 3.6315 50.3046 2.88853C50.1655 2.20718 49.6915 1.4111 48.8154 1.4111C48.3571 1.4111 48.003 1.55915 47.7615 1.85022C47.3193 2.38429 47.3791 3.22882 47.3794 3.23735L47.3972 3.4726H41.5684C39.0756 3.4726 37.181 0.954175 36.8164 0.434443H33.8474V0.000366211H37.0132L37.0719 0.0891213C37.0911 0.118577 39.0484 3.03853 41.5684 3.03853H46.9858C46.9963 2.69281 47.0728 2.03975 47.4731 1.55606C47.7919 1.17198 48.2432 0.976649 48.8154 0.976649C49.9222 0.976649 50.5151 1.95449 50.6867 2.79241C50.8793 3.73421 50.6074 4.60817 50.0257 4.91629C49.4842 5.20348 49.1503 5.02985 48.9654 4.83258C48.8375 4.69615 48.7487 4.514 48.692 4.3175C48.4949 5.0035 48.3411 5.90925 48.6449 6.52394C48.8434 6.92701 49.215 7.1522 49.781 7.21304C50.4057 7.28126 50.8706 7.08593 51.0926 6.6658C51.2799 6.31117 51.2439 5.90072 51.1146 5.69453C51.0167 5.53912 50.908 5.56045 50.8727 5.56665L50.8049 5.13915C51.0538 5.08954 51.2831 5.20271 51.4362 5.44688C51.6736 5.82554 51.6715 6.43015 51.4306 6.88516C51.2712 7.18746 50.8828 7.66108 50.0218 7.66108Z" fill="white"/>
<path d="M63.4664 28.14L59.4645 22.8167V18.7232C59.2617 17.5205 58.5783 16.4361 57.9169 15.3869C57.2003 14.2498 56.5235 13.1759 56.577 12.0384C56.6403 10.714 57.7883 9.79703 58.8213 9.77145C59.5414 9.76293 60.0374 10.1823 60.0997 10.8896C60.2587 12.7154 58.7171 13.3851 58.7021 13.3921L58.5626 12.9863C58.6147 12.9639 59.8403 12.4228 59.7099 10.9311C59.6512 10.2582 59.0747 10.2075 58.83 10.2055C58.0854 10.2237 57.0241 10.8783 56.9685 12.0612C56.921 13.0491 57.5611 14.0638 58.2378 15.1381C58.923 16.2253 59.6312 17.3492 59.8525 18.6836L59.8557 22.6589L63.7674 27.8613L63.4664 28.14Z" fill="white"/>
<path d="M3.07554 42.8645H2.68436V2.71339H9.02283L5.40334 6.89295C5.73649 7.04488 6.32622 7.40183 7.31236 8.23743C8.10869 8.91297 8.35899 9.87063 8.62397 10.8845C8.93578 12.0763 9.25773 13.3096 10.5288 14.2138C11.0661 14.5963 11.9002 14.5335 12.5556 14.0622C13.2132 13.5898 13.5243 12.8367 13.41 11.9957C13.2453 10.7814 12.5336 10.3501 11.9156 10.3501C11.9093 10.3501 11.9033 10.3501 11.897 10.3501C11.3146 10.3582 10.8172 10.733 10.7641 11.2039C10.6403 12.305 11.3713 12.5313 11.4027 12.5402L11.3031 12.96C10.9242 12.8495 10.2428 12.329 10.3757 11.1496C10.4536 10.4574 11.1059 9.92683 11.8921 9.91559C11.9002 9.91559 11.9082 9.91559 11.9162 9.91559C12.6979 9.91559 13.5952 10.4435 13.7976 11.931C13.9357 12.9479 13.5606 13.8572 12.7689 14.4261C11.9879 14.9866 10.9801 15.049 10.3173 14.5789C8.92285 13.5863 8.56418 12.2147 8.24851 11.0051C8.00136 10.0613 7.76891 9.17068 7.07465 8.58235C5.53898 7.28011 5.05097 7.21774 5.03105 7.2158L4.62555 7.17549L4.89891 6.84876L8.10415 3.14707H3.07554V42.8645Z" fill="white"/>
<path d="M14.5803 11.2395L14.1941 11.1686C14.1962 11.1554 14.3821 9.8001 13.5176 9.13038C13.0988 8.8052 12.4951 8.70561 11.9044 8.86141C11.4443 8.98311 11.0552 9.25093 10.914 9.54354L10.7305 9.92335L10.5644 9.53306C10.5533 9.50709 9.45771 6.97201 7.90455 6.97201C7.89686 6.97201 7.88952 6.97201 7.88183 6.97201L7.37808 6.98015L14.0658 0H22.2444V0.434077H14.221L8.32577 6.58676C9.56361 6.87705 10.441 8.37657 10.7735 9.03776C11.015 8.76763 11.3828 8.55329 11.8142 8.43857C12.5231 8.25138 13.2261 8.37384 13.7431 8.77382C14.8104 9.60361 14.5901 11.1737 14.5803 11.2395Z" fill="white"/>
<path d="M0.391158 47.9645H0V0.977058H13.2072V1.41114H0.391158V47.9645Z" fill="white"/>
<path d="M13.7906 7.661C12.9296 7.661 12.542 7.18739 12.3822 6.88586C12.142 6.43085 12.14 5.82624 12.3766 5.44759C12.5297 5.20342 12.7594 5.09024 13.0083 5.13985L12.9405 5.56733C12.9052 5.56113 12.7968 5.53982 12.6986 5.69523C12.5692 5.90142 12.5329 6.31185 12.7206 6.66648C12.9422 7.08661 13.4079 7.28196 14.0322 7.21375C14.5978 7.1529 14.9694 6.92771 15.1687 6.52464C15.4717 5.90995 15.3186 5.00382 15.1211 4.31821C15.0641 4.5147 14.9757 4.69724 14.8478 4.83328C14.6628 5.03055 14.329 5.2038 13.7871 4.917C13.2054 4.60849 12.9342 3.73453 13.1265 2.79312C13.2977 1.95558 13.8906 0.977352 14.9977 0.977352C15.5696 0.977352 16.0213 1.17269 16.3397 1.55677C16.7403 2.04046 16.8169 2.6939 16.827 3.03923H22.2444C24.7683 3.03923 26.7221 0.119643 26.7409 0.0898003L26.7996 0.00104523H29.9657V0.435122H26.9965C26.6322 0.954854 24.7379 3.47331 22.2444 3.47331H16.4156L16.4331 3.23843C16.4334 3.2299 16.4904 2.37957 16.0492 1.84898C15.808 1.55908 15.4539 1.41181 14.997 1.41181C14.1206 1.41181 13.6473 2.20788 13.5075 2.88923C13.3551 3.6322 13.5396 4.30542 13.9553 4.52595C14.366 4.74415 14.524 4.57633 14.5754 4.52091C14.8407 4.23915 14.8467 3.54847 14.7673 3.3419L15.1222 3.15781C15.1645 3.24967 16.1551 5.42704 15.5112 6.73276C15.2491 7.26451 14.7638 7.57186 14.0692 7.64666C13.9714 7.65597 13.8784 7.661 13.7906 7.661Z" fill="white"/>
<path d="M0.346059 28.1399L0.0454102 27.8616L3.95679 22.6597V18.7231C4.18157 17.3496 4.88945 16.2256 5.57462 15.1385C6.25174 14.0641 6.89146 13.0491 6.84427 12.0616C6.78834 10.8787 5.72703 10.2241 4.98279 10.2059C4.73599 10.2078 4.16164 10.2586 4.10256 10.9314C3.97182 12.4309 5.23658 12.9813 5.24952 12.9863L5.11109 13.3925C5.09535 13.3855 3.55373 12.7158 3.71313 10.89C3.77361 10.1966 4.2452 9.77143 4.94784 9.77143C4.96217 9.77143 4.97649 9.77181 4.99118 9.77181C6.02416 9.797 7.17253 10.7144 7.23545 12.0387C7.28929 13.1762 6.61215 14.2502 5.89588 15.3873C5.23413 16.4365 4.55071 17.5213 4.34482 18.7627L4.34797 22.817L0.346059 28.1399Z" fill="white"/>
<path d="M9.02283 99.287H2.68436V59.1363H3.07554V98.8533H8.10415L4.58079 94.7842H5.03979C5.05063 94.7827 5.53899 94.7203 7.07431 93.4184C7.76857 92.8301 8.00102 91.9395 8.24817 90.9957C8.56383 89.7857 8.92249 88.4141 10.3169 87.4219C10.9797 86.9503 11.9875 87.0134 12.7685 87.5746C13.5606 88.1436 13.9354 89.0524 13.7973 90.0698C13.5949 91.5569 12.6975 92.0852 11.9159 92.0852C11.9079 92.0852 11.8998 92.0852 11.8918 92.0852C11.1056 92.0743 10.4533 91.5437 10.3753 90.8511C10.2425 89.6718 10.9238 89.1513 11.3027 89.0408L11.4024 89.4602L11.352 89.2505L11.4031 89.4598C11.3716 89.4695 10.6407 89.7078 10.7634 90.7965C10.8165 91.2678 11.3139 91.643 11.8963 91.6507C11.9026 91.6507 11.9086 91.6507 11.9148 91.6507C12.5332 91.6507 13.245 91.2197 13.4093 90.0047C13.5236 89.1641 13.2125 88.411 12.5549 87.9386C11.8988 87.4677 11.065 87.4045 10.5281 87.787C9.25668 88.6912 8.93473 89.9245 8.62326 91.1162C8.35828 92.1301 8.10799 93.0874 7.31166 93.7634C6.32551 94.599 5.73578 94.9559 5.40264 95.1078L9.02283 99.287Z" fill="white"/>
<path d="M22.2437 102H14.0651L7.37738 95.0199L7.88113 95.028C7.88882 95.028 7.89651 95.028 7.90385 95.028C9.45736 95.028 10.5526 92.4929 10.5638 92.4673L10.7298 92.0771L10.9133 92.4569C11.0546 92.7495 11.4436 93.0169 11.9037 93.139C12.4944 93.294 13.0982 93.1952 13.517 92.87C14.3853 92.1972 14.1951 90.8454 14.1937 90.8322L14.5796 90.7605C14.5894 90.8272 14.8097 92.3972 13.7414 93.2258C13.2243 93.6262 12.5217 93.7486 11.8124 93.5607C11.3814 93.4463 11.0136 93.2316 10.7717 92.9619C10.4393 93.6231 9.56117 95.1222 8.32403 95.4125L14.2192 101.566H22.2427V102H22.2437Z" fill="white"/>
<path d="M13.2072 101.023H0V54.0358H0.391158V100.59H13.2072V101.023Z" fill="white"/>
<path d="M29.9647 102H26.7986L26.7399 101.911C26.7207 101.882 24.7634 98.9618 22.2433 98.9618H16.826C16.8162 99.3076 16.7397 99.9606 16.3387 100.444C16.0202 100.828 15.5686 101.023 14.9967 101.023C13.8896 101.023 13.2971 100.046 13.1254 99.208C12.9328 98.2658 13.2044 97.3922 13.7861 97.0841C14.3283 96.7977 14.6618 96.9709 14.8467 97.1678C14.9747 97.3042 15.0631 97.4864 15.1201 97.6825C15.3173 96.9965 15.4707 96.0911 15.1676 95.4764C14.9684 95.0734 14.5968 94.8478 14.0312 94.7873C13.4068 94.718 12.9412 94.9145 12.7196 95.3346C12.5322 95.6888 12.5682 96.0993 12.6976 96.3058C12.7958 96.4613 12.9045 96.4403 12.9394 96.4337L13.0073 96.8612C12.7584 96.9116 12.5291 96.798 12.3756 96.5535C12.1386 96.1748 12.141 95.5702 12.3812 95.1152C12.557 94.7827 13.0101 94.242 14.0686 94.3552C14.7632 94.43 15.2484 94.7373 15.5106 95.2687C16.1545 96.5744 15.1638 98.7518 15.1215 98.844L14.7667 98.6599C14.8464 98.4534 14.8401 97.7627 14.5748 97.4809C14.5234 97.4255 14.365 97.2577 13.9546 97.4759C13.539 97.6961 13.3544 98.3697 13.5068 99.1126C13.6463 99.7936 14.12 100.59 14.9963 100.59C15.4546 100.59 15.8087 100.442 16.0499 100.151C16.4925 99.6165 16.4327 98.7719 16.4324 98.7638L16.4142 98.5282H22.243C24.7365 98.5282 26.6308 101.047 26.9951 101.567H29.9644L29.9647 102Z" fill="white"/>
<path d="M4.94784 92.2293C4.24485 92.2293 3.77361 91.8038 3.71313 91.1104C3.55373 89.285 5.09535 88.6149 5.11109 88.6079L5.25022 89.0137C5.19778 89.0365 3.97287 89.5776 4.10256 91.0694C4.16164 91.7422 4.73599 91.7976 4.98279 91.7949C5.72703 91.7767 6.78834 91.1221 6.84427 89.9392C6.89146 88.9509 6.25174 87.9362 5.57462 86.8619C4.88945 85.7751 4.18157 84.6512 3.96029 83.3168L3.95679 79.3411L0.0454102 74.1384L0.346059 73.8604L4.34797 79.1837V83.2772C4.55073 84.4799 5.23413 85.5639 5.89588 86.6131C6.61215 87.7506 7.28929 88.8245 7.23545 89.9617C7.17253 91.2864 6.02416 92.203 4.99118 92.229C4.97649 92.229 4.96217 92.2293 4.94784 92.2293Z" fill="white"/>
<path d="M61.1281 99.287H54.7893L58.4091 95.1075C58.0756 94.9555 57.4859 94.5986 56.5001 93.763C55.7038 93.0871 55.4531 92.1298 55.1885 91.1159C54.8763 89.9241 54.5547 88.6909 53.2837 87.7867C52.7464 87.4045 51.9127 87.4673 51.2569 87.9382C50.599 88.4106 50.2882 89.1637 50.4021 90.0043C50.5671 91.219 51.2792 91.6503 51.8966 91.6503C51.9032 91.6503 51.9092 91.6503 51.9155 91.6503C52.4979 91.6422 52.9953 91.2674 53.0481 90.7961C53.1718 89.6954 52.4412 89.4691 52.4098 89.4598L52.509 89.0404C52.8883 89.1509 53.5696 89.6714 53.4365 90.8508C53.3585 91.543 52.7062 92.0736 51.9203 92.0848C51.9123 92.0848 51.9043 92.0848 51.8959 92.0848C51.1146 92.0848 50.2169 91.5566 50.0148 90.0694C49.8764 89.0525 50.2522 88.1432 51.0433 87.5743C51.8242 87.0127 52.8317 86.9503 53.4948 87.4216C54.8893 88.4137 55.2479 89.7854 55.5643 90.9953C55.8108 91.9391 56.0436 92.8297 56.7378 93.4181C58.2735 94.7199 58.7611 94.7827 58.7818 94.7842L59.1869 94.8249L58.9136 95.1513L55.7083 98.8529H60.7366V59.1363H61.1278V99.287H61.1281Z" fill="white"/>
<path d="M49.7478 102H41.5691V101.566H49.5929L55.4874 95.4129C54.2502 95.1226 53.3725 93.6235 53.04 92.9623C52.7985 93.232 52.4311 93.4467 51.9994 93.561C51.2908 93.7486 50.5878 93.6266 50.0707 93.2262C49.0018 92.3972 49.2223 90.8275 49.2325 90.7609L49.6188 90.8318C49.6163 90.8453 49.4307 92.2003 50.2948 92.8704C50.7136 93.1956 51.3173 93.2948 51.9081 93.1394C52.3682 93.0177 52.7576 92.7499 52.8985 92.4573L53.0823 92.0774L53.2484 92.4677C53.2592 92.4933 54.3548 95.0284 55.9086 95.0284C55.916 95.0284 55.9233 95.0284 55.9306 95.0284L56.4347 95.0203L49.7478 102Z" fill="white"/>
<path d="M63.8128 101.023H50.606V100.59H63.4213V54.0359H63.8128V101.023Z" fill="white"/>
<path d="M37.0135 102H33.8478V101.566H36.8167C37.1813 101.046 39.076 98.5274 41.5688 98.5274H47.3969L47.3797 98.7626C47.3794 98.7708 47.3224 99.6215 47.7632 100.152C48.0048 100.442 48.3589 100.589 48.8158 100.589C49.6918 100.589 50.1655 99.7928 50.305 99.1118C50.4574 98.3689 50.2728 97.6956 49.8572 97.4751C49.4464 97.2569 49.2888 97.4247 49.237 97.4802C48.9721 97.7619 48.9658 98.4526 49.0451 98.6591L48.6906 98.8433C48.648 98.7514 47.6573 96.574 48.3012 95.2679C48.5634 94.7365 49.049 94.4292 49.7432 94.3544C50.8028 94.2467 51.2548 94.7823 51.4306 95.1144C51.6711 95.5694 51.6732 96.174 51.4362 96.5527C51.2831 96.7973 51.0538 96.9108 50.8049 96.8604L50.8727 96.433C50.9083 96.4395 51.0167 96.4605 51.1146 96.305C51.2439 96.0985 51.2803 95.688 51.0926 95.3338C50.8706 94.9137 50.4057 94.7172 49.781 94.7866C49.215 94.847 48.8434 95.0726 48.6449 95.4756C48.3411 96.0903 48.4945 96.9961 48.6921 97.6817C48.7487 97.4856 48.8375 97.303 48.9654 97.167C49.1503 96.9701 49.4842 96.7969 50.0257 97.0833C50.6074 97.3918 50.879 98.2654 50.6867 99.2072C50.5154 100.045 49.9222 101.023 48.8154 101.023C48.2432 101.023 47.7919 100.828 47.4731 100.443C47.0728 99.9598 46.9966 99.3064 46.9858 98.9611H41.5685C39.0445 98.9611 37.0911 101.881 37.0719 101.91L37.0135 102Z" fill="white"/>
<path d="M58.865 92.2294C58.8503 92.2294 58.836 92.229 58.8213 92.229C57.7883 92.2034 56.6403 91.2864 56.577 89.9617C56.5235 88.8246 57.2003 87.7506 57.9169 86.6131C58.5783 85.5639 59.2617 84.4795 59.4676 83.2377L59.4645 79.1837L63.4664 73.8605L63.7674 74.1384L59.8557 79.3407V83.2773C59.6312 84.6508 58.923 85.7748 58.2378 86.8615C57.5611 87.9359 56.921 88.9509 56.9685 89.9388C57.0241 91.1217 58.0854 91.7763 58.83 91.7945C59.0744 91.7972 59.6512 91.7418 59.7099 91.069C59.8406 89.5691 58.5759 89.0191 58.5629 89.0137L58.7021 88.6075C58.7171 88.6145 60.2587 89.2846 60.0997 91.1101C60.0395 91.8042 59.5676 92.2294 58.865 92.2294Z" fill="white"/>
</svg>
