<svg width="50" height="67" viewBox="0 0 50 67" fill="none" xmlns="http://www.w3.org/2000/svg">
<path d="M37.3487 33.6751C37.3487 33.0656 36.9424 29.0027 42.0211 29.0027C46.084 29.0027 47.2351 32.5239 47.3029 34.2845C47.3029 35.606 47.3029 38.0736 47.3029 40.9883M37.3487 33.6751V26.1587C37.281 24.4658 36.1705 21.08 32.27 21.08C27.3945 21.08 27.1914 24.5335 27.1914 26.1587M37.3487 33.6751C37.3487 33.93 37.3487 35.4181 37.3487 37.1286M47.3029 40.9883C47.3029 43.4506 47.3029 46.2319 47.3029 48.911C47.3029 54.7617 41.8856 59.3392 39.177 60.8967C31.5387 65.1221 21.097 64.147 16.8309 63.1313C12.768 61.9801 4.64217 57.1994 4.64217 47.2859C4.64217 44.6841 6.28084 41.8896 7.68937 40.582M47.3029 40.9883C47.3029 43.0198 46.6934 46.2701 42.0211 46.2701C38.2832 46.2701 37.3487 43.1552 37.3487 41.5978C37.3487 40.4348 37.3487 38.6891 37.3487 37.1286M16.8309 49.9268C17.0341 49.9268 18.2123 49.9268 21.3002 49.9268C25.1599 49.9268 26.9882 47.8953 26.9882 44.2387C26.9882 41.3134 24.8214 40.0403 23.7379 39.7695C21.8345 39.2835 19.362 38.8738 16.8309 38.8033C13.119 38.6999 10.0429 38.3973 7.68937 40.582M27.1914 26.1587C27.1914 27.4588 27.1914 34.0137 27.1914 37.1286M27.1914 26.1587V7.87551C27.1237 6.25034 26.0538 3 22.3159 3C17.6435 3 16.8309 6.25035 16.8309 8.48495C16.8309 9.0376 16.8309 31.143 16.8309 32.8625L13.7837 14.5793C13.1743 11.5321 11.4273 8.80999 7.68937 9.29754C3.01701 9.90698 2.61071 12.5479 3.22015 16.6108C3.7077 19.8611 6.52128 33.2978 7.68937 40.582M27.1914 37.1286C27.1914 38.8214 28.2071 42.2072 32.27 42.2072C36.333 42.2072 37.3487 38.8214 37.3487 37.1286M27.1914 37.1286V44.2387" stroke="#1E2439" stroke-width="5" stroke-linecap="round" stroke-linejoin="round"/>
</svg>
