<svg width="68" height="68" viewBox="0 0 68 68" fill="none" xmlns="http://www.w3.org/2000/svg">
<path d="M48.6161 31.2373V21.4863M38.0525 14.173C38.2557 12.3447 39.6371 8.6881 43.5375 8.6881C47.4379 8.6881 48.5484 12.0739 48.6161 13.7668V21.4863M18.1442 42.2072L12.253 36.316C10.9664 35.3002 7.78376 33.8782 5.34601 36.316C2.90826 38.7537 4.33028 42.7489 5.34601 44.4418L17.9411 57.0369C20.9206 59.7455 28.7485 65.1627 36.2242 65.1627C45.569 65.1627 58.5703 58.6621 58.5703 47.0827C58.5703 37.8193 58.5703 26.2941 58.5703 21.6895C58.5026 19.9966 57.3921 16.6108 53.4917 16.6108C49.5913 16.6108 48.6161 19.8611 48.6161 21.4863" stroke="#1E2439" stroke-width="5" stroke-linecap="round" stroke-linejoin="round"/>
<path d="M38.0525 31.2373V8.07866C38.0525 6.38577 37.0368 3 32.9739 3C28.9109 3 27.8952 6.38577 27.8952 8.07866V13.9699" stroke="#1E2439" stroke-width="5" stroke-linecap="round" stroke-linejoin="round"/>
<path d="M18.1442 42.2072V14.3762C18.3474 12.751 19.6069 9.50067 23.0197 9.50067C26.4326 9.50067 27.6921 12.751 27.8952 14.3762V31.2373" stroke="#1E2439" stroke-width="5" stroke-linecap="round" stroke-linejoin="round"/>
</svg>
