<svg width="49" height="53" viewBox="0 0 49 53" fill="none" xmlns="http://www.w3.org/2000/svg">
<path d="M35.7065 19.8611C35.7065 19.2517 35.3002 15.1888 40.3789 15.1888C44.4418 15.1888 45.593 18.71 45.6607 20.4706C45.6607 21.792 45.6607 24.2596 45.6607 27.1744M35.7065 19.8611V12.3447C35.6388 10.6518 34.5283 7.26608 30.6279 7.26608C25.7524 7.26608 25.5492 10.7196 25.5492 12.3447M35.7065 19.8611C35.7065 20.1161 35.7065 21.6042 35.7065 23.3146M45.6607 27.1744C45.6607 29.6366 45.6607 32.418 45.6607 35.0971C45.6607 40.9477 40.2435 45.5253 37.5348 47.0827C29.8965 51.3082 19.4548 50.3331 15.1888 49.3173C11.1258 48.1662 3 43.3855 3 33.4719C3 30.8701 3.87687 29.0043 5.28541 27.6968M45.6607 27.1744C45.6607 29.2059 45.0513 32.4562 40.3789 32.4562C36.641 32.4562 35.7065 29.3413 35.7065 27.7838C35.7065 26.6208 35.7065 24.8752 35.7065 23.3146M15.1888 36.1128C15.3919 36.1128 16.5702 36.1128 19.658 36.1128C23.5178 36.1128 25.3461 34.0814 25.3461 30.4247C25.3461 27.4994 23.1792 26.2264 22.0957 25.9555C20.1924 25.4696 17.7199 25.0599 15.1888 24.9894M25.5492 12.3447C25.5492 13.6449 25.5492 20.1997 25.5492 23.3146M25.5492 12.3447V7.87551C25.4815 6.25034 24.4116 3 20.6737 3C16.0014 3 15.1888 6.25035 15.1888 8.48495C15.1888 9.0376 15.1888 10.3713 15.1888 12.0908M25.5492 23.3146C25.5492 25.0075 26.565 28.3933 30.6279 28.3933C34.6908 28.3933 35.7065 25.0075 35.7065 23.3146M25.5492 23.3146V30.4247M15.1888 24.9894C15.1888 21.7032 15.1888 15.9335 15.1888 12.0908M15.1888 24.9894C11.4769 24.886 7.63894 25.5121 5.28541 27.6968M15.1888 12.0908C15.1549 10.4826 14.1426 7.26608 10.3641 7.26608C5.6409 7.26608 5.28541 10.1101 5.28541 12.3447C5.28541 14.1324 5.28541 23.3243 5.28541 27.6968" stroke="#1E2439" stroke-width="5" stroke-linecap="round" stroke-linejoin="round"/>
</svg>
