<svg width="68" height="68" viewBox="0 0 68 68" fill="none" xmlns="http://www.w3.org/2000/svg">
<path d="M45.7065 26.8611C45.7065 26.2517 45.3002 22.1888 50.3789 22.1888C54.4418 22.1888 55.593 25.71 55.6607 27.4706C55.6607 28.792 55.6607 31.2596 55.6607 34.1744M45.7065 26.8611V19.3447C45.6388 17.6518 44.5283 14.2661 40.6279 14.2661C35.7524 14.2661 35.5492 17.7196 35.5492 19.3447M45.7065 26.8611C45.7065 27.1161 45.7065 28.6042 45.7065 30.3146M55.6607 34.1744C55.6607 36.6366 55.6607 39.418 55.6607 42.0971C55.6607 47.9477 50.2435 52.5253 47.5348 54.0827C39.8965 58.3082 29.4548 57.3331 25.1888 56.3173C21.1258 55.1662 13 50.3855 13 40.4719C13 37.8701 13.8769 36.0043 15.2854 34.6968M55.6607 34.1744C55.6607 36.2059 55.0513 39.4562 50.3789 39.4562C46.641 39.4562 45.7065 36.3413 45.7065 34.7838C45.7065 33.6208 45.7065 31.8752 45.7065 30.3146M25.1888 43.1128C25.3919 43.1128 26.5702 43.1128 29.658 43.1128C33.5178 43.1128 35.3461 41.0814 35.3461 37.4247C35.3461 34.4994 33.1792 33.2264 32.0957 32.9555C30.1924 32.4696 27.7199 32.0599 25.1888 31.9894M35.5492 19.3447C35.5492 20.6449 35.5492 27.1997 35.5492 30.3146M35.5492 19.3447V14.8755C35.4815 13.2503 34.4116 10 30.6737 10C26.0014 10 25.1888 13.2504 25.1888 15.485C25.1888 16.0376 25.1888 17.3713 25.1888 19.0908M35.5492 30.3146C35.5492 32.0075 36.565 35.3933 40.6279 35.3933C44.6908 35.3933 45.7065 32.0075 45.7065 30.3146M35.5492 30.3146V37.4247M25.1888 31.9894C25.1888 28.7032 25.1888 22.9335 25.1888 19.0908M25.1888 31.9894C21.4769 31.886 17.6389 32.5121 15.2854 34.6968M25.1888 19.0908C25.1549 17.4826 24.1426 14.2661 20.3641 14.2661C15.6409 14.2661 15.2854 17.1101 15.2854 19.3447C15.2854 21.1324 15.2854 30.3243 15.2854 34.6968" stroke="#1E2439" stroke-width="5" stroke-linecap="round" stroke-linejoin="round"/>
</svg>
