<svg width="61" height="68" viewBox="0 0 61 68" fill="none" xmlns="http://www.w3.org/2000/svg">
<path d="M47.6161 31.2373V21.4863M37.0525 14.173C37.2557 12.3447 38.6371 8.6881 42.5375 8.6881C46.4379 8.6881 47.5484 12.0739 47.6161 13.7668V21.4863M17.1442 42.2072L11.253 36.316C9.96639 35.3002 6.78376 33.8782 4.34601 36.316C1.90826 38.7537 3.33028 42.7489 4.34601 44.4418L16.9411 57.0369C19.9206 59.7455 27.7485 65.1627 35.2242 65.1627C44.569 65.1627 57.5703 58.6621 57.5703 47.0827C57.5703 37.8193 57.5703 26.2941 57.5703 21.6895C57.5026 19.9966 56.3921 16.6108 52.4917 16.6108C48.5913 16.6108 47.6161 19.8611 47.6161 21.4863" stroke="#1E2439" stroke-width="5" stroke-linecap="round" stroke-linejoin="round"/>
<path d="M37.0525 31.2373V8.07866C37.0525 6.38577 36.0368 3 31.9739 3C27.9109 3 26.8952 6.38577 26.8952 8.07866V13.9699" stroke="#1E2439" stroke-width="5" stroke-linecap="round" stroke-linejoin="round"/>
<path d="M17.1442 42.2072V14.3762C17.3474 12.751 18.6069 9.50067 22.0197 9.50067C25.4326 9.50067 26.6921 12.751 26.8952 14.3762V31.2373" stroke="#1E2439" stroke-width="5" stroke-linecap="round" stroke-linejoin="round"/>
</svg>
