<svg width="68" height="68" viewBox="0 0 68 68" fill="none" xmlns="http://www.w3.org/2000/svg">
<path d="M46.3487 33.6751C46.3487 33.0656 45.9424 29.0027 51.0211 29.0027C55.084 29.0027 56.2351 32.5239 56.3029 34.2845C56.3029 35.606 56.3029 38.0736 56.3029 40.9883M46.3487 33.6751V26.1587C46.281 24.4658 45.1705 21.08 41.27 21.08C36.3945 21.08 36.1914 24.5335 36.1914 26.1587M46.3487 33.6751C46.3487 33.93 46.3487 35.4181 46.3487 37.1286M56.3029 40.9883C56.3029 43.4506 56.3029 46.2319 56.3029 48.911C56.3029 54.7617 50.8856 59.3392 48.177 60.8967C40.5387 65.1221 30.097 64.147 25.8309 63.1313C21.768 61.9801 13.6422 57.1994 13.6422 47.2859C13.6422 44.6841 15.2808 41.8896 16.6894 40.582M56.3029 40.9883C56.3029 43.0198 55.6934 46.2701 51.0211 46.2701C47.2832 46.2701 46.3487 43.1552 46.3487 41.5978C46.3487 40.4348 46.3487 38.6891 46.3487 37.1286M25.8309 49.9268C26.0341 49.9268 27.2123 49.9268 30.3002 49.9268C34.1599 49.9268 35.9882 47.8953 35.9882 44.2387C35.9882 41.3134 33.8214 40.0403 32.7379 39.7695C30.8345 39.2835 28.362 38.8738 25.8309 38.8033C22.119 38.6999 19.0429 38.3973 16.6894 40.582M36.1914 26.1587C36.1914 27.4588 36.1914 34.0137 36.1914 37.1286M36.1914 26.1587V7.87551C36.1237 6.25034 35.0538 3 31.3159 3C26.6435 3 25.8309 6.25035 25.8309 8.48495C25.8309 9.0376 25.8309 31.143 25.8309 32.8625L22.7837 14.5793C22.1743 11.5321 20.4273 8.80999 16.6894 9.29754C12.017 9.90698 11.6107 12.5479 12.2201 16.6108C12.7077 19.8611 15.5213 33.2978 16.6894 40.582M36.1914 37.1286C36.1914 38.8214 37.2071 42.2072 41.27 42.2072C45.333 42.2072 46.3487 38.8214 46.3487 37.1286M36.1914 37.1286V44.2387" stroke="#1E2439" stroke-width="5" stroke-linecap="round" stroke-linejoin="round"/>
</svg>
