<svg width="26" height="26" viewBox="0 0 26 26" fill="none" xmlns="http://www.w3.org/2000/svg">
<path d="M9.26264 19.6156C9.26264 19.7076 9.15794 19.7811 9.02592 19.7811C8.8757 19.7949 8.771 19.7214 8.771 19.6156C8.771 19.5237 8.8757 19.4501 9.00772 19.4501C9.14428 19.4363 9.26264 19.5099 9.26264 19.6156ZM7.8469 19.4087C7.81504 19.5007 7.90608 19.6064 8.04265 19.634C8.161 19.68 8.29757 19.634 8.32488 19.542C8.3522 19.4501 8.26571 19.3443 8.12914 19.3029C8.01078 19.2708 7.87877 19.3167 7.8469 19.4087ZM9.85898 19.3305C9.72696 19.3627 9.63592 19.4501 9.64958 19.5558C9.66323 19.6478 9.78159 19.7076 9.91816 19.6754C10.0502 19.6432 10.1412 19.5558 10.1276 19.4639C10.1139 19.3765 9.99099 19.3167 9.85898 19.3305ZM12.8543 1.71054C6.54042 1.71054 1.71053 6.55236 1.71053 12.9299C1.71053 18.0293 4.88797 22.3929 9.42652 23.9286C10.0092 24.0344 10.214 23.6712 10.214 23.3723C10.214 23.0872 10.2004 21.5146 10.2004 20.549C10.2004 20.549 7.01385 21.2387 6.34467 19.1788C6.34467 19.1788 5.82572 17.8407 5.07916 17.4959C5.07916 17.4959 4.0367 16.774 5.152 16.7878C5.152 16.7878 6.28549 16.8797 6.90915 17.9741C7.90608 19.749 9.57674 19.2386 10.2277 18.9351C10.3324 18.1994 10.6283 17.689 10.9561 17.3855C8.41138 17.1004 5.84393 16.728 5.84393 12.3046C5.84393 11.0401 6.1899 10.4056 6.91825 9.59631C6.79989 9.29744 6.41296 8.06514 7.03661 6.47419C7.98802 6.17531 10.1776 7.71568 10.1776 7.71568C11.0881 7.45819 12.0668 7.32484 13.0364 7.32484C14.006 7.32484 14.9848 7.45819 15.8952 7.71568C15.8952 7.71568 18.0848 6.17072 19.0362 6.47419C19.6599 8.06974 19.2729 9.29744 19.1546 9.59631C19.8829 10.4102 20.3291 11.0447 20.3291 12.3046C20.3291 16.7418 17.6478 17.0958 15.1031 17.3855C15.5219 17.7488 15.877 18.4385 15.877 19.5191C15.877 21.0686 15.8633 22.986 15.8633 23.3631C15.8633 23.662 16.0727 24.0252 16.6509 23.9195C21.2031 22.3929 24.2895 18.0293 24.2895 12.9299C24.2895 6.55236 19.1682 1.71054 12.8543 1.71054ZM6.13527 17.5695C6.07609 17.6154 6.08975 17.7212 6.16714 17.8086C6.23997 17.8821 6.34467 17.9143 6.40385 17.8545C6.46303 17.8086 6.44937 17.7028 6.37199 17.6154C6.29915 17.5419 6.19445 17.5097 6.13527 17.5695ZM5.64363 17.197C5.61177 17.2568 5.65729 17.3303 5.74833 17.3763C5.82117 17.4223 5.91221 17.4085 5.94408 17.3441C5.97594 17.2844 5.93042 17.2108 5.83938 17.1648C5.74833 17.1372 5.6755 17.151 5.64363 17.197ZM7.11855 18.8339C7.04571 18.8937 7.07303 19.0317 7.17773 19.119C7.28243 19.2248 7.41444 19.2386 7.47362 19.165C7.5328 19.1052 7.50549 18.9673 7.41444 18.8799C7.31429 18.7742 7.17773 18.7604 7.11855 18.8339ZM6.5996 18.158C6.52676 18.204 6.52676 18.3235 6.5996 18.4293C6.67243 18.5351 6.79534 18.581 6.85452 18.5351C6.92736 18.4753 6.92736 18.3557 6.85452 18.25C6.79079 18.1442 6.67243 18.0982 6.5996 18.158Z" fill="#528123"/>
</svg>
