<svg width="85" height="91" viewBox="0 0 85 91" fill="none" xmlns="http://www.w3.org/2000/svg">
<mask id="path-1-inside-1_404_30" fill="white">
<path d="M9.63345 29.4607C9.35834 30.0262 9.00053 30.4857 8.56005 30.839C8.11957 31.1923 7.61878 31.4352 7.05767 31.5677C6.49657 31.7002 5.89654 31.7199 5.25757 31.627C4.6145 31.5321 3.95282 31.3192 3.27254 30.9882L3.15574 30.9314C2.47546 30.6005 1.90056 30.2144 1.43105 29.7731C0.959428 29.3258 0.602556 28.8405 0.36043 28.3173C0.114206 27.7921 -0.00586389 27.2471 0.000220055 26.6825C0.006304 26.1178 0.146905 25.5527 0.422022 24.9872C0.70312 24.4094 1.06391 23.9438 1.50439 23.5905C1.94687 23.233 2.44971 22.9911 3.01292 22.8648C3.57402 22.7323 4.17411 22.7176 4.81319 22.8207C5.45017 22.9177 6.1088 23.1317 6.78908 23.4626L6.90588 23.5195C7.58616 23.8504 8.16311 24.2375 8.63672 24.6807C9.10823 25.1179 9.46604 25.596 9.71016 26.1152C9.95428 26.6343 10.0723 27.1782 10.0642 27.747C10.0581 28.3116 9.91455 28.8829 9.63345 29.4607ZM8.988 29.1467C9.30299 28.4992 9.40626 27.8754 9.29782 27.2753C9.19138 26.6711 8.90096 26.1117 8.42657 25.5972C7.95218 25.0826 7.32567 24.6359 6.54703 24.2571L6.41794 24.1943C5.6393 23.8155 4.9022 23.6014 4.20663 23.5519C3.51306 23.4983 2.89575 23.6161 2.35469 23.9053C1.80954 24.1925 1.38047 24.6578 1.06747 25.3012C0.766439 25.92 0.671195 26.5325 0.781741 27.1387C0.888188 27.7429 1.17562 28.3084 1.64402 28.8353C2.11032 29.3561 2.73075 29.8048 3.50529 30.1816L3.63438 30.2444C4.41302 30.6232 5.15317 30.8363 5.85482 30.8837C6.55848 30.927 7.18083 30.8041 7.72188 30.5149C8.26493 30.2216 8.68697 29.7655 8.988 29.1467Z"/>
<path d="M13.1115 23.453L12.6842 23.0393L13.3954 22.1769L7.23149 16.2097L6.39262 16.9485L5.96041 16.5301L8.87983 13.5144C9.36798 13.0102 9.86841 12.6669 10.3811 12.4845C10.8938 12.3022 11.3961 12.2715 11.888 12.3924C12.3765 12.5102 12.8304 12.772 13.2495 13.1777C13.6719 13.5866 13.9515 14.0349 14.0883 14.5226C14.2218 15.0071 14.2058 15.5085 14.0402 16.0268C13.8712 16.542 13.5427 17.0517 13.0546 17.556L11.4807 19.1817L13.9659 21.5876L14.8048 20.8488L15.2321 21.2625L13.1115 23.453ZM10.9896 18.7062L12.5634 17.0805C13.134 16.4911 13.4113 15.9033 13.3953 15.317C13.3761 14.7275 13.1406 14.214 12.6887 13.7766C12.2271 13.3296 11.703 13.1077 11.1164 13.1108C10.5298 13.1074 9.94962 13.402 9.37588 13.9947L7.80206 15.6203L10.9896 18.7062Z"/>
<path d="M21.4039 15.8118L21.1265 15.2857L22.0707 14.6874L18.0697 7.09844L17.0426 7.53948L16.762 7.00735L20.4749 5.04987C21.0957 4.72256 21.6781 4.55202 22.2221 4.53827C22.7661 4.52451 23.253 4.65163 23.6828 4.91961C24.1105 5.18357 24.4603 5.57355 24.7324 6.08956C25.0066 6.6096 25.1328 7.12264 25.1111 7.62867C25.0872 8.13067 24.916 8.6022 24.5973 9.04328C24.2764 9.48033 23.8056 9.8625 23.1848 10.1898L21.1832 11.2451L22.7964 14.3048L23.8235 13.8638L24.1009 14.3899L21.4039 15.8118ZM20.8644 10.6404L22.866 9.58511C23.5916 9.20254 24.0381 8.73018 24.2053 8.16801C24.3705 7.60181 24.3064 7.04055 24.0131 6.48422C23.7135 5.91581 23.2844 5.5418 22.7261 5.3622C22.1696 5.17645 21.5266 5.27592 20.7969 5.66061L18.7953 6.71587L20.8644 10.6404Z"/>
<path d="M35.9589 10.5439C35.3389 10.6495 34.7571 10.6261 34.2133 10.4737C33.6696 10.3214 33.1805 10.0557 32.7461 9.67662C32.3117 9.29759 31.9462 8.82128 31.6497 8.2477C31.3524 7.66962 31.1403 7.00771 31.0132 6.26194L30.9914 6.13391C30.8643 5.38814 30.8435 4.69594 30.9288 4.0573C31.0179 3.4134 31.2046 2.84069 31.489 2.33919C31.7726 1.83319 32.1458 1.41827 32.6083 1.09444C33.0709 0.770604 33.6122 0.555872 34.2322 0.450241C34.8657 0.342314 35.4542 0.364538 35.998 0.516914C36.5462 0.668524 37.0357 0.936476 37.4664 1.32077C37.9008 1.6998 38.2621 2.17912 38.5504 2.75873C38.8424 3.33307 39.052 3.99313 39.1791 4.73889L39.2009 4.86693C39.3279 5.61269 39.3492 6.30714 39.2646 6.95028C39.1837 7.58815 39.0033 8.15746 38.7234 8.6582C38.4435 9.15894 38.07 9.57161 37.603 9.89621C37.1404 10.22 36.5923 10.4359 35.9589 10.5439ZM35.8383 9.83628C36.5482 9.71534 37.1154 9.43608 37.5402 8.9985C37.9694 8.56015 38.255 7.99833 38.3972 7.31303C38.5393 6.62773 38.5376 5.85829 38.3922 5.00471L38.3681 4.86319C38.2227 4.00961 37.9676 3.28566 37.6028 2.69135C37.2425 2.09627 36.7873 1.66299 36.2371 1.39151C35.6862 1.11554 35.0581 1.03764 34.3528 1.15782C33.6744 1.2734 33.121 1.55261 32.6925 1.99545C32.2633 2.43379 31.9709 2.99676 31.8153 3.68436C31.6634 4.36669 31.6598 5.13241 31.8045 5.9815L31.8286 6.12302C31.974 6.9766 32.2318 7.70241 32.6018 8.30045C32.9763 8.89772 33.4386 9.3321 33.9888 9.60358C34.5434 9.87429 35.16 9.95186 35.8383 9.83628Z"/>
<path d="M42.8438 9.82882L42.9375 9.24152L44.0518 9.32931L45.4035 0.857361L44.3171 0.594049L44.4119 0L46.3291 0.305874L50.5971 9.65366L50.6398 9.64662L51.8773 1.89022L50.7437 1.61937L50.8384 1.02532L53.8492 1.50568L53.7544 2.09973L52.6401 2.01193L51.1807 11.1589L50.4247 11.0383L46.1012 1.64708L46.0586 1.65412L44.8146 9.45102L45.9482 9.72187L45.8545 10.3092L42.8438 9.82882Z"/>
<path d="M54.6288 12.4905L54.9006 11.9615L55.9323 12.3917L59.853 4.76091L58.9026 4.17263L59.1775 3.63757L65.5375 6.9054L64.5409 8.84502L63.9207 8.52635L64.5472 7.15745L60.5889 5.12365L58.8675 8.47388L62.4367 10.3077L62.1242 10.9158L58.5551 9.08191L56.6525 12.7848L60.7993 14.9155L61.5536 13.5969L62.1678 13.9124L61.1712 15.852L54.6288 12.4905Z"/>
<path d="M63.6948 17.7295L64.1177 17.3113L64.9644 18.0412L71.0649 12.0093L70.3447 11.1545L70.7725 10.7315L72.1375 12.1121L70.0503 22.1739L70.0889 22.1935L75.6742 16.671L74.9203 15.7822L75.3481 15.3592L77.4917 17.5272L77.0639 17.9502L76.2173 17.2203L69.6306 23.7329L69.0923 23.1884L71.1605 13.0588L71.1219 13.0392L65.5075 18.5905L66.2613 19.4794L65.8384 19.8975L63.6948 17.7295Z"/>
<path d="M72.7393 29.0582L73.2741 28.798L73.8415 29.7611L81.5746 25.9992L80.3515 23.485L78.948 24.069L78.6549 23.4666L80.622 22.5096L84.0879 29.6342L82.1208 30.5911L81.8307 29.9948L83.1535 29.2449L81.9335 26.7369L74.2003 30.4988L74.6079 31.5397L74.0731 31.7998L72.7393 29.0582Z"/>
<path d="M3.10936 70.3313L3.56445 69.9484L4.34979 70.7438L10.9146 65.2207L10.2652 64.3109L10.7256 63.9236L13.4277 67.1354C13.8795 67.6724 14.17 68.2053 14.2991 68.7339C14.4282 69.2625 14.4075 69.7653 14.237 70.2423C14.07 70.7163 13.7633 71.141 13.317 71.5166C12.8671 71.8951 12.3926 72.1275 11.8936 72.2138C11.398 72.2973 10.9008 72.2302 10.4021 72.0125C9.90679 71.792 9.43324 71.4132 8.98142 70.8761L7.52474 69.1447L4.87789 71.3715L5.52723 72.2814L5.07214 72.6642L3.10936 70.3313ZM8.04783 68.7046L9.50451 70.436C10.0326 71.0637 10.5891 71.3996 11.174 71.4435C11.7624 71.4845 12.2972 71.3026 12.7784 70.8977C13.2701 70.484 13.5444 69.9853 13.6011 69.4015C13.6643 68.8183 13.4304 68.2111 12.8994 67.5799L11.4427 65.8484L8.04783 68.7046Z"/>
<path d="M14.4151 81.9092L14.718 81.3974L15.7222 81.8885L20.092 74.5057L19.1784 73.8617L19.4848 73.344L22.1085 74.897L21.8021 75.4146L20.7979 74.9236L16.4246 82.3122L20.0189 84.4397L20.9019 83.0956L21.4784 83.4368L20.3154 85.4016L14.4151 81.9092Z"/>
<path d="M27.8315 88.7638L27.9414 88.1793L28.6691 88.2675L33.8632 79.7705L34.629 79.9146L36.3547 89.7128L37.0647 89.8951L36.9548 90.4795L34.5429 90.026L34.6528 89.4415L35.5241 89.5427L35.1269 87.1796L30.74 86.3546L29.5047 88.4107L30.3532 88.6329L30.2433 89.2174L27.8315 88.7638ZM31.1346 85.6984L34.9976 86.4249L34.134 81.2891L34.0742 80.8675L34.0339 80.8599L33.8183 81.2298L31.1346 85.6984Z"/>
<path d="M47.9529 90.2229L47.8429 89.6384L48.9216 89.3452L48.3631 86.3757L44.0781 81.4918L43.2685 81.5884L43.1573 80.9972L45.8916 80.483L46.0028 81.0742L44.985 81.3212L48.4193 85.3427L48.6306 85.6159L48.6348 85.6012L48.7417 85.282L50.5275 80.2789L49.4761 80.421L49.3649 79.8298L52.0656 79.3219L52.1768 79.9131L51.3605 80.1222L49.1605 86.1771L49.7277 89.1936L50.8392 89.075L50.9492 89.6594L47.9529 90.2229Z"/>
<path d="M61.7586 86.2711L61.4557 85.7593L62.3693 85.1153L57.9995 77.7325L56.9953 78.2236L56.6889 77.7059L62.8422 74.0638L63.953 75.9404L63.3529 76.2956L62.5281 75.0362L58.6984 77.3029L60.617 80.5443L64.0701 78.5004L64.4183 79.0887L60.9652 81.1326L63.0857 84.7151L67.0977 82.3405L66.3835 80.9997L66.9777 80.648L68.0884 82.5246L61.7586 86.2711Z"/>
<path d="M74.239 77.705L73.7787 77.3177L74.428 76.4079L67.8632 70.8848L67.0779 71.6802L66.6228 71.2973L69.3249 68.0856C69.7826 67.5416 70.2501 67.1487 70.7274 66.9071C71.2046 66.6654 71.6789 66.576 72.1501 66.6389C72.6242 66.6983 73.0862 66.9172 73.536 67.2957C73.9719 67.6625 74.2533 68.0749 74.3801 68.5329C74.5098 68.9875 74.4977 69.4656 74.3436 69.9673C74.189 70.4626 73.9051 70.9593 73.492 71.4574L71.985 73.2805L74.9561 75.7802L75.7415 74.9847L76.2018 75.372L74.239 77.705ZM78.5474 72.5839L73.388 71.0394L73.9109 70.4073L78.4141 71.7124L78.9797 71.1252L79.4452 71.5168L78.5474 72.5839ZM71.4619 72.8404L72.8657 71.1717C73.4379 70.4917 73.7179 69.8757 73.7059 69.3236C73.6939 68.7716 73.4595 68.3034 73.0027 67.919C72.511 67.5053 71.9974 67.3442 71.4619 67.4357C70.9229 67.5242 70.3849 67.8875 69.848 68.5257L68.3913 70.2571L71.4619 72.8404Z"/>
<path d="M68.7918 45.4207C68.7918 60.6086 56.4796 72.9207 41.2918 72.9207C26.104 72.9207 13.7918 60.6086 13.7918 45.4207C13.7918 30.2329 26.104 17.9207 41.2918 17.9207C56.4796 17.9207 68.7918 30.2329 68.7918 45.4207Z"/>
</mask>
<path d="M9.63345 29.4607C9.35834 30.0262 9.00053 30.4857 8.56005 30.839C8.11957 31.1923 7.61878 31.4352 7.05767 31.5677C6.49657 31.7002 5.89654 31.7199 5.25757 31.627C4.6145 31.5321 3.95282 31.3192 3.27254 30.9882L3.15574 30.9314C2.47546 30.6005 1.90056 30.2144 1.43105 29.7731C0.959428 29.3258 0.602556 28.8405 0.36043 28.3173C0.114206 27.7921 -0.00586389 27.2471 0.000220055 26.6825C0.006304 26.1178 0.146905 25.5527 0.422022 24.9872C0.70312 24.4094 1.06391 23.9438 1.50439 23.5905C1.94687 23.233 2.44971 22.9911 3.01292 22.8648C3.57402 22.7323 4.17411 22.7176 4.81319 22.8207C5.45017 22.9177 6.1088 23.1317 6.78908 23.4626L6.90588 23.5195C7.58616 23.8504 8.16311 24.2375 8.63672 24.6807C9.10823 25.1179 9.46604 25.596 9.71016 26.1152C9.95428 26.6343 10.0723 27.1782 10.0642 27.747C10.0581 28.3116 9.91455 28.8829 9.63345 29.4607ZM8.988 29.1467C9.30299 28.4992 9.40626 27.8754 9.29782 27.2753C9.19138 26.6711 8.90096 26.1117 8.42657 25.5972C7.95218 25.0826 7.32567 24.6359 6.54703 24.2571L6.41794 24.1943C5.6393 23.8155 4.9022 23.6014 4.20663 23.5519C3.51306 23.4983 2.89575 23.6161 2.35469 23.9053C1.80954 24.1925 1.38047 24.6578 1.06747 25.3012C0.766439 25.92 0.671195 26.5325 0.781741 27.1387C0.888188 27.7429 1.17562 28.3084 1.64402 28.8353C2.11032 29.3561 2.73075 29.8048 3.50529 30.1816L3.63438 30.2444C4.41302 30.6232 5.15317 30.8363 5.85482 30.8837C6.55848 30.927 7.18083 30.8041 7.72188 30.5149C8.26493 30.2216 8.68697 29.7655 8.988 29.1467Z" fill="#E8E8E8"/>
<path d="M13.1115 23.453L12.6842 23.0393L13.3954 22.1769L7.23149 16.2097L6.39262 16.9485L5.96041 16.5301L8.87983 13.5144C9.36798 13.0102 9.86841 12.6669 10.3811 12.4845C10.8938 12.3022 11.3961 12.2715 11.888 12.3924C12.3765 12.5102 12.8304 12.772 13.2495 13.1777C13.6719 13.5866 13.9515 14.0349 14.0883 14.5226C14.2218 15.0071 14.2058 15.5085 14.0402 16.0268C13.8712 16.542 13.5427 17.0517 13.0546 17.556L11.4807 19.1817L13.9659 21.5876L14.8048 20.8488L15.2321 21.2625L13.1115 23.453ZM10.9896 18.7062L12.5634 17.0805C13.134 16.4911 13.4113 15.9033 13.3953 15.317C13.3761 14.7275 13.1406 14.214 12.6887 13.7766C12.2271 13.3296 11.703 13.1077 11.1164 13.1108C10.5298 13.1074 9.94962 13.402 9.37588 13.9947L7.80206 15.6203L10.9896 18.7062Z" fill="#E8E8E8"/>
<path d="M21.4039 15.8118L21.1265 15.2857L22.0707 14.6874L18.0697 7.09844L17.0426 7.53948L16.762 7.00735L20.4749 5.04987C21.0957 4.72256 21.6781 4.55202 22.2221 4.53827C22.7661 4.52451 23.253 4.65163 23.6828 4.91961C24.1105 5.18357 24.4603 5.57355 24.7324 6.08956C25.0066 6.6096 25.1328 7.12264 25.1111 7.62867C25.0872 8.13067 24.916 8.6022 24.5973 9.04328C24.2764 9.48033 23.8056 9.8625 23.1848 10.1898L21.1832 11.2451L22.7964 14.3048L23.8235 13.8638L24.1009 14.3899L21.4039 15.8118ZM20.8644 10.6404L22.866 9.58511C23.5916 9.20254 24.0381 8.73018 24.2053 8.16801C24.3705 7.60181 24.3064 7.04055 24.0131 6.48422C23.7135 5.91581 23.2844 5.5418 22.7261 5.3622C22.1696 5.17645 21.5266 5.27592 20.7969 5.66061L18.7953 6.71587L20.8644 10.6404Z" fill="#E8E8E8"/>
<path d="M35.9589 10.5439C35.3389 10.6495 34.7571 10.6261 34.2133 10.4737C33.6696 10.3214 33.1805 10.0557 32.7461 9.67662C32.3117 9.29759 31.9462 8.82128 31.6497 8.2477C31.3524 7.66962 31.1403 7.00771 31.0132 6.26194L30.9914 6.13391C30.8643 5.38814 30.8435 4.69594 30.9288 4.0573C31.0179 3.4134 31.2046 2.84069 31.489 2.33919C31.7726 1.83319 32.1458 1.41827 32.6083 1.09444C33.0709 0.770604 33.6122 0.555872 34.2322 0.450241C34.8657 0.342314 35.4542 0.364538 35.998 0.516914C36.5462 0.668524 37.0357 0.936476 37.4664 1.32077C37.9008 1.6998 38.2621 2.17912 38.5504 2.75873C38.8424 3.33307 39.052 3.99313 39.1791 4.73889L39.2009 4.86693C39.3279 5.61269 39.3492 6.30714 39.2646 6.95028C39.1837 7.58815 39.0033 8.15746 38.7234 8.6582C38.4435 9.15894 38.07 9.57161 37.603 9.89621C37.1404 10.22 36.5923 10.4359 35.9589 10.5439ZM35.8383 9.83628C36.5482 9.71534 37.1154 9.43608 37.5402 8.9985C37.9694 8.56015 38.255 7.99833 38.3972 7.31303C38.5393 6.62773 38.5376 5.85829 38.3922 5.00471L38.3681 4.86319C38.2227 4.00961 37.9676 3.28566 37.6028 2.69135C37.2425 2.09627 36.7873 1.66299 36.2371 1.39151C35.6862 1.11554 35.0581 1.03764 34.3528 1.15782C33.6744 1.2734 33.121 1.55261 32.6925 1.99545C32.2633 2.43379 31.9709 2.99676 31.8153 3.68436C31.6634 4.36669 31.6598 5.13241 31.8045 5.9815L31.8286 6.12302C31.974 6.9766 32.2318 7.70241 32.6018 8.30045C32.9763 8.89772 33.4386 9.3321 33.9888 9.60358C34.5434 9.87429 35.16 9.95186 35.8383 9.83628Z" fill="#E8E8E8"/>
<path d="M42.8438 9.82882L42.9375 9.24152L44.0518 9.32931L45.4035 0.857361L44.3171 0.594049L44.4119 0L46.3291 0.305874L50.5971 9.65366L50.6398 9.64662L51.8773 1.89022L50.7437 1.61937L50.8384 1.02532L53.8492 1.50568L53.7544 2.09973L52.6401 2.01193L51.1807 11.1589L50.4247 11.0383L46.1012 1.64708L46.0586 1.65412L44.8146 9.45102L45.9482 9.72187L45.8545 10.3092L42.8438 9.82882Z" fill="#E8E8E8"/>
<path d="M54.6288 12.4905L54.9006 11.9615L55.9323 12.3917L59.853 4.76091L58.9026 4.17263L59.1775 3.63757L65.5375 6.9054L64.5409 8.84502L63.9207 8.52635L64.5472 7.15745L60.5889 5.12365L58.8675 8.47388L62.4367 10.3077L62.1242 10.9158L58.5551 9.08191L56.6525 12.7848L60.7993 14.9155L61.5536 13.5969L62.1678 13.9124L61.1712 15.852L54.6288 12.4905Z" fill="#E8E8E8"/>
<path d="M63.6948 17.7295L64.1177 17.3113L64.9644 18.0412L71.0649 12.0093L70.3447 11.1545L70.7725 10.7315L72.1375 12.1121L70.0503 22.1739L70.0889 22.1935L75.6742 16.671L74.9203 15.7822L75.3481 15.3592L77.4917 17.5272L77.0639 17.9502L76.2173 17.2203L69.6306 23.7329L69.0923 23.1884L71.1605 13.0588L71.1219 13.0392L65.5075 18.5905L66.2613 19.4794L65.8384 19.8975L63.6948 17.7295Z" fill="#E8E8E8"/>
<path d="M72.7393 29.0582L73.2741 28.798L73.8415 29.7611L81.5746 25.9992L80.3515 23.485L78.948 24.069L78.6549 23.4666L80.622 22.5096L84.0879 29.6342L82.1208 30.5911L81.8307 29.9948L83.1535 29.2449L81.9335 26.7369L74.2003 30.4988L74.6079 31.5397L74.0731 31.7998L72.7393 29.0582Z" fill="#E8E8E8"/>
<path d="M3.10936 70.3313L3.56445 69.9484L4.34979 70.7438L10.9146 65.2207L10.2652 64.3109L10.7256 63.9236L13.4277 67.1354C13.8795 67.6724 14.17 68.2053 14.2991 68.7339C14.4282 69.2625 14.4075 69.7653 14.237 70.2423C14.07 70.7163 13.7633 71.141 13.317 71.5166C12.8671 71.8951 12.3926 72.1275 11.8936 72.2138C11.398 72.2973 10.9008 72.2302 10.4021 72.0125C9.90679 71.792 9.43324 71.4132 8.98142 70.8761L7.52474 69.1447L4.87789 71.3715L5.52723 72.2814L5.07214 72.6642L3.10936 70.3313ZM8.04783 68.7046L9.50451 70.436C10.0326 71.0637 10.5891 71.3996 11.174 71.4435C11.7624 71.4845 12.2972 71.3026 12.7784 70.8977C13.2701 70.484 13.5444 69.9853 13.6011 69.4015C13.6643 68.8183 13.4304 68.2111 12.8994 67.5799L11.4427 65.8484L8.04783 68.7046Z" fill="#E8E8E8"/>
<path d="M14.4151 81.9092L14.718 81.3974L15.7222 81.8885L20.092 74.5057L19.1784 73.8617L19.4848 73.344L22.1085 74.897L21.8021 75.4146L20.7979 74.9236L16.4246 82.3122L20.0189 84.4397L20.9019 83.0956L21.4784 83.4368L20.3154 85.4016L14.4151 81.9092Z" fill="#E8E8E8"/>
<path d="M27.8315 88.7638L27.9414 88.1793L28.6691 88.2675L33.8632 79.7705L34.629 79.9146L36.3547 89.7128L37.0647 89.8951L36.9548 90.4795L34.5429 90.026L34.6528 89.4415L35.5241 89.5427L35.1269 87.1796L30.74 86.3546L29.5047 88.4107L30.3532 88.6329L30.2433 89.2174L27.8315 88.7638ZM31.1346 85.6984L34.9976 86.4249L34.134 81.2891L34.0742 80.8675L34.0339 80.8599L33.8183 81.2298L31.1346 85.6984Z" fill="#E8E8E8"/>
<path d="M47.9529 90.2229L47.8429 89.6384L48.9216 89.3452L48.3631 86.3757L44.0781 81.4918L43.2685 81.5884L43.1573 80.9972L45.8916 80.483L46.0028 81.0742L44.985 81.3212L48.4193 85.3427L48.6306 85.6159L48.6348 85.6012L48.7417 85.282L50.5275 80.2789L49.4761 80.421L49.3649 79.8298L52.0656 79.3219L52.1768 79.9131L51.3605 80.1222L49.1605 86.1771L49.7277 89.1936L50.8392 89.075L50.9492 89.6594L47.9529 90.2229Z" fill="#E8E8E8"/>
<path d="M61.7586 86.2711L61.4557 85.7593L62.3693 85.1153L57.9995 77.7325L56.9953 78.2236L56.6889 77.7059L62.8422 74.0638L63.953 75.9404L63.3529 76.2956L62.5281 75.0362L58.6984 77.3029L60.617 80.5443L64.0701 78.5004L64.4183 79.0887L60.9652 81.1326L63.0857 84.7151L67.0977 82.3405L66.3835 80.9997L66.9777 80.648L68.0884 82.5246L61.7586 86.2711Z" fill="#E8E8E8"/>
<path d="M74.239 77.705L73.7787 77.3177L74.428 76.4079L67.8632 70.8848L67.0779 71.6802L66.6228 71.2973L69.3249 68.0856C69.7826 67.5416 70.2501 67.1487 70.7274 66.9071C71.2046 66.6654 71.6789 66.576 72.1501 66.6389C72.6242 66.6983 73.0862 66.9172 73.536 67.2957C73.9719 67.6625 74.2533 68.0749 74.3801 68.5329C74.5098 68.9875 74.4977 69.4656 74.3436 69.9673C74.189 70.4626 73.9051 70.9593 73.492 71.4574L71.985 73.2805L74.9561 75.7802L75.7415 74.9847L76.2018 75.372L74.239 77.705ZM78.5474 72.5839L73.388 71.0394L73.9109 70.4073L78.4141 71.7124L78.9797 71.1252L79.4452 71.5168L78.5474 72.5839ZM71.4619 72.8404L72.8657 71.1717C73.4379 70.4917 73.7179 69.8757 73.7059 69.3236C73.6939 68.7716 73.4595 68.3034 73.0027 67.919C72.511 67.5053 71.9974 67.3442 71.4619 67.4357C70.9229 67.5242 70.3849 67.8875 69.848 68.5257L68.3913 70.2571L71.4619 72.8404Z" fill="#E8E8E8"/>
<path d="M9.63345 29.4607C9.35834 30.0262 9.00053 30.4857 8.56005 30.839C8.11957 31.1923 7.61878 31.4352 7.05767 31.5677C6.49657 31.7002 5.89654 31.7199 5.25757 31.627C4.6145 31.5321 3.95282 31.3192 3.27254 30.9882L3.15574 30.9314C2.47546 30.6005 1.90056 30.2144 1.43105 29.7731C0.959428 29.3258 0.602556 28.8405 0.36043 28.3173C0.114206 27.7921 -0.00586389 27.2471 0.000220055 26.6825C0.006304 26.1178 0.146905 25.5527 0.422022 24.9872C0.70312 24.4094 1.06391 23.9438 1.50439 23.5905C1.94687 23.233 2.44971 22.9911 3.01292 22.8648C3.57402 22.7323 4.17411 22.7176 4.81319 22.8207C5.45017 22.9177 6.1088 23.1317 6.78908 23.4626L6.90588 23.5195C7.58616 23.8504 8.16311 24.2375 8.63672 24.6807C9.10823 25.1179 9.46604 25.596 9.71016 26.1152C9.95428 26.6343 10.0723 27.1782 10.0642 27.747C10.0581 28.3116 9.91455 28.8829 9.63345 29.4607ZM8.988 29.1467C9.30299 28.4992 9.40626 27.8754 9.29782 27.2753C9.19138 26.6711 8.90096 26.1117 8.42657 25.5972C7.95218 25.0826 7.32567 24.6359 6.54703 24.2571L6.41794 24.1943C5.6393 23.8155 4.9022 23.6014 4.20663 23.5519C3.51306 23.4983 2.89575 23.6161 2.35469 23.9053C1.80954 24.1925 1.38047 24.6578 1.06747 25.3012C0.766439 25.92 0.671195 26.5325 0.781741 27.1387C0.888188 27.7429 1.17562 28.3084 1.64402 28.8353C2.11032 29.3561 2.73075 29.8048 3.50529 30.1816L3.63438 30.2444C4.41302 30.6232 5.15317 30.8363 5.85482 30.8837C6.55848 30.927 7.18083 30.8041 7.72188 30.5149C8.26493 30.2216 8.68697 29.7655 8.988 29.1467Z" stroke="#E8E8E8" stroke-width="2" mask="url(#path-1-inside-1_404_30)"/>
<path d="M13.1115 23.453L12.6842 23.0393L13.3954 22.1769L7.23149 16.2097L6.39262 16.9485L5.96041 16.5301L8.87983 13.5144C9.36798 13.0102 9.86841 12.6669 10.3811 12.4845C10.8938 12.3022 11.3961 12.2715 11.888 12.3924C12.3765 12.5102 12.8304 12.772 13.2495 13.1777C13.6719 13.5866 13.9515 14.0349 14.0883 14.5226C14.2218 15.0071 14.2058 15.5085 14.0402 16.0268C13.8712 16.542 13.5427 17.0517 13.0546 17.556L11.4807 19.1817L13.9659 21.5876L14.8048 20.8488L15.2321 21.2625L13.1115 23.453ZM10.9896 18.7062L12.5634 17.0805C13.134 16.4911 13.4113 15.9033 13.3953 15.317C13.3761 14.7275 13.1406 14.214 12.6887 13.7766C12.2271 13.3296 11.703 13.1077 11.1164 13.1108C10.5298 13.1074 9.94962 13.402 9.37588 13.9947L7.80206 15.6203L10.9896 18.7062Z" stroke="#E8E8E8" stroke-width="2" mask="url(#path-1-inside-1_404_30)"/>
<path d="M21.4039 15.8118L21.1265 15.2857L22.0707 14.6874L18.0697 7.09844L17.0426 7.53948L16.762 7.00735L20.4749 5.04987C21.0957 4.72256 21.6781 4.55202 22.2221 4.53827C22.7661 4.52451 23.253 4.65163 23.6828 4.91961C24.1105 5.18357 24.4603 5.57355 24.7324 6.08956C25.0066 6.6096 25.1328 7.12264 25.1111 7.62867C25.0872 8.13067 24.916 8.6022 24.5973 9.04328C24.2764 9.48033 23.8056 9.8625 23.1848 10.1898L21.1832 11.2451L22.7964 14.3048L23.8235 13.8638L24.1009 14.3899L21.4039 15.8118ZM20.8644 10.6404L22.866 9.58511C23.5916 9.20254 24.0381 8.73018 24.2053 8.16801C24.3705 7.60181 24.3064 7.04055 24.0131 6.48422C23.7135 5.91581 23.2844 5.5418 22.7261 5.3622C22.1696 5.17645 21.5266 5.27592 20.7969 5.66061L18.7953 6.71587L20.8644 10.6404Z" stroke="#E8E8E8" stroke-width="2" mask="url(#path-1-inside-1_404_30)"/>
<path d="M35.9589 10.5439C35.3389 10.6495 34.7571 10.6261 34.2133 10.4737C33.6696 10.3214 33.1805 10.0557 32.7461 9.67662C32.3117 9.29759 31.9462 8.82128 31.6497 8.2477C31.3524 7.66962 31.1403 7.00771 31.0132 6.26194L30.9914 6.13391C30.8643 5.38814 30.8435 4.69594 30.9288 4.0573C31.0179 3.4134 31.2046 2.84069 31.489 2.33919C31.7726 1.83319 32.1458 1.41827 32.6083 1.09444C33.0709 0.770604 33.6122 0.555872 34.2322 0.450241C34.8657 0.342314 35.4542 0.364538 35.998 0.516914C36.5462 0.668524 37.0357 0.936476 37.4664 1.32077C37.9008 1.6998 38.2621 2.17912 38.5504 2.75873C38.8424 3.33307 39.052 3.99313 39.1791 4.73889L39.2009 4.86693C39.3279 5.61269 39.3492 6.30714 39.2646 6.95028C39.1837 7.58815 39.0033 8.15746 38.7234 8.6582C38.4435 9.15894 38.07 9.57161 37.603 9.89621C37.1404 10.22 36.5923 10.4359 35.9589 10.5439ZM35.8383 9.83628C36.5482 9.71534 37.1154 9.43608 37.5402 8.9985C37.9694 8.56015 38.255 7.99833 38.3972 7.31303C38.5393 6.62773 38.5376 5.85829 38.3922 5.00471L38.3681 4.86319C38.2227 4.00961 37.9676 3.28566 37.6028 2.69135C37.2425 2.09627 36.7873 1.66299 36.2371 1.39151C35.6862 1.11554 35.0581 1.03764 34.3528 1.15782C33.6744 1.2734 33.121 1.55261 32.6925 1.99545C32.2633 2.43379 31.9709 2.99676 31.8153 3.68436C31.6634 4.36669 31.6598 5.13241 31.8045 5.9815L31.8286 6.12302C31.974 6.9766 32.2318 7.70241 32.6018 8.30045C32.9763 8.89772 33.4386 9.3321 33.9888 9.60358C34.5434 9.87429 35.16 9.95186 35.8383 9.83628Z" stroke="#E8E8E8" stroke-width="2" mask="url(#path-1-inside-1_404_30)"/>
<path d="M42.8438 9.82882L42.9375 9.24152L44.0518 9.32931L45.4035 0.857361L44.3171 0.594049L44.4119 0L46.3291 0.305874L50.5971 9.65366L50.6398 9.64662L51.8773 1.89022L50.7437 1.61937L50.8384 1.02532L53.8492 1.50568L53.7544 2.09973L52.6401 2.01193L51.1807 11.1589L50.4247 11.0383L46.1012 1.64708L46.0586 1.65412L44.8146 9.45102L45.9482 9.72187L45.8545 10.3092L42.8438 9.82882Z" stroke="#E8E8E8" stroke-width="2" mask="url(#path-1-inside-1_404_30)"/>
<path d="M54.6288 12.4905L54.9006 11.9615L55.9323 12.3917L59.853 4.76091L58.9026 4.17263L59.1775 3.63757L65.5375 6.9054L64.5409 8.84502L63.9207 8.52635L64.5472 7.15745L60.5889 5.12365L58.8675 8.47388L62.4367 10.3077L62.1242 10.9158L58.5551 9.08191L56.6525 12.7848L60.7993 14.9155L61.5536 13.5969L62.1678 13.9124L61.1712 15.852L54.6288 12.4905Z" stroke="#E8E8E8" stroke-width="2" mask="url(#path-1-inside-1_404_30)"/>
<path d="M63.6948 17.7295L64.1177 17.3113L64.9644 18.0412L71.0649 12.0093L70.3447 11.1545L70.7725 10.7315L72.1375 12.1121L70.0503 22.1739L70.0889 22.1935L75.6742 16.671L74.9203 15.7822L75.3481 15.3592L77.4917 17.5272L77.0639 17.9502L76.2173 17.2203L69.6306 23.7329L69.0923 23.1884L71.1605 13.0588L71.1219 13.0392L65.5075 18.5905L66.2613 19.4794L65.8384 19.8975L63.6948 17.7295Z" stroke="#E8E8E8" stroke-width="2" mask="url(#path-1-inside-1_404_30)"/>
<path d="M72.7393 29.0582L73.2741 28.798L73.8415 29.7611L81.5746 25.9992L80.3515 23.485L78.948 24.069L78.6549 23.4666L80.622 22.5096L84.0879 29.6342L82.1208 30.5911L81.8307 29.9948L83.1535 29.2449L81.9335 26.7369L74.2003 30.4988L74.6079 31.5397L74.0731 31.7998L72.7393 29.0582Z" stroke="#E8E8E8" stroke-width="2" mask="url(#path-1-inside-1_404_30)"/>
<path d="M3.10936 70.3313L3.56445 69.9484L4.34979 70.7438L10.9146 65.2207L10.2652 64.3109L10.7256 63.9236L13.4277 67.1354C13.8795 67.6724 14.17 68.2053 14.2991 68.7339C14.4282 69.2625 14.4075 69.7653 14.237 70.2423C14.07 70.7163 13.7633 71.141 13.317 71.5166C12.8671 71.8951 12.3926 72.1275 11.8936 72.2138C11.398 72.2973 10.9008 72.2302 10.4021 72.0125C9.90679 71.792 9.43324 71.4132 8.98142 70.8761L7.52474 69.1447L4.87789 71.3715L5.52723 72.2814L5.07214 72.6642L3.10936 70.3313ZM8.04783 68.7046L9.50451 70.436C10.0326 71.0637 10.5891 71.3996 11.174 71.4435C11.7624 71.4845 12.2972 71.3026 12.7784 70.8977C13.2701 70.484 13.5444 69.9853 13.6011 69.4015C13.6643 68.8183 13.4304 68.2111 12.8994 67.5799L11.4427 65.8484L8.04783 68.7046Z" stroke="#E8E8E8" stroke-width="2" mask="url(#path-1-inside-1_404_30)"/>
<path d="M14.4151 81.9092L14.718 81.3974L15.7222 81.8885L20.092 74.5057L19.1784 73.8617L19.4848 73.344L22.1085 74.897L21.8021 75.4146L20.7979 74.9236L16.4246 82.3122L20.0189 84.4397L20.9019 83.0956L21.4784 83.4368L20.3154 85.4016L14.4151 81.9092Z" stroke="#E8E8E8" stroke-width="2" mask="url(#path-1-inside-1_404_30)"/>
<path d="M27.8315 88.7638L27.9414 88.1793L28.6691 88.2675L33.8632 79.7705L34.629 79.9146L36.3547 89.7128L37.0647 89.8951L36.9548 90.4795L34.5429 90.026L34.6528 89.4415L35.5241 89.5427L35.1269 87.1796L30.74 86.3546L29.5047 88.4107L30.3532 88.6329L30.2433 89.2174L27.8315 88.7638ZM31.1346 85.6984L34.9976 86.4249L34.134 81.2891L34.0742 80.8675L34.0339 80.8599L33.8183 81.2298L31.1346 85.6984Z" stroke="#E8E8E8" stroke-width="2" mask="url(#path-1-inside-1_404_30)"/>
<path d="M47.9529 90.2229L47.8429 89.6384L48.9216 89.3452L48.3631 86.3757L44.0781 81.4918L43.2685 81.5884L43.1573 80.9972L45.8916 80.483L46.0028 81.0742L44.985 81.3212L48.4193 85.3427L48.6306 85.6159L48.6348 85.6012L48.7417 85.282L50.5275 80.2789L49.4761 80.421L49.3649 79.8298L52.0656 79.3219L52.1768 79.9131L51.3605 80.1222L49.1605 86.1771L49.7277 89.1936L50.8392 89.075L50.9492 89.6594L47.9529 90.2229Z" stroke="#E8E8E8" stroke-width="2" mask="url(#path-1-inside-1_404_30)"/>
<path d="M61.7586 86.2711L61.4557 85.7593L62.3693 85.1153L57.9995 77.7325L56.9953 78.2236L56.6889 77.7059L62.8422 74.0638L63.953 75.9404L63.3529 76.2956L62.5281 75.0362L58.6984 77.3029L60.617 80.5443L64.0701 78.5004L64.4183 79.0887L60.9652 81.1326L63.0857 84.7151L67.0977 82.3405L66.3835 80.9997L66.9777 80.648L68.0884 82.5246L61.7586 86.2711Z" stroke="#E8E8E8" stroke-width="2" mask="url(#path-1-inside-1_404_30)"/>
<path d="M74.239 77.705L73.7787 77.3177L74.428 76.4079L67.8632 70.8848L67.0779 71.6802L66.6228 71.2973L69.3249 68.0856C69.7826 67.5416 70.2501 67.1487 70.7274 66.9071C71.2046 66.6654 71.6789 66.576 72.1501 66.6389C72.6242 66.6983 73.0862 66.9172 73.536 67.2957C73.9719 67.6625 74.2533 68.0749 74.3801 68.5329C74.5098 68.9875 74.4977 69.4656 74.3436 69.9673C74.189 70.4626 73.9051 70.9593 73.492 71.4574L71.985 73.2805L74.9561 75.7802L75.7415 74.9847L76.2018 75.372L74.239 77.705ZM78.5474 72.5839L73.388 71.0394L73.9109 70.4073L78.4141 71.7124L78.9797 71.1252L79.4452 71.5168L78.5474 72.5839ZM71.4619 72.8404L72.8657 71.1717C73.4379 70.4917 73.7179 69.8757 73.7059 69.3236C73.6939 68.7716 73.4595 68.3034 73.0027 67.919C72.511 67.5053 71.9974 67.3442 71.4619 67.4357C70.9229 67.5242 70.3849 67.8875 69.848 68.5257L68.3913 70.2571L71.4619 72.8404Z" stroke="#E8E8E8" stroke-width="2" mask="url(#path-1-inside-1_404_30)"/>
<path d="M68.7918 45.4207C68.7918 60.6086 56.4796 72.9207 41.2918 72.9207C26.104 72.9207 13.7918 60.6086 13.7918 45.4207C13.7918 30.2329 26.104 17.9207 41.2918 17.9207C56.4796 17.9207 68.7918 30.2329 68.7918 45.4207Z" stroke="#E8E8E8" stroke-width="2" mask="url(#path-1-inside-1_404_30)"/>
</svg>
